<svg xmlns="http://www.w3.org/2000/svg" viewBox="0 0 100 100">
  <rect width="100" height="100" rx="22" fill="#2d6a4f"/>
  <path d="M50 18 C35 18 22 32 22 50 C22 68 35 78 50 82 C65 78 78 68 78 50 C78 32 65 18 50 18 Z" fill="#74a57f" opacity="0.4"/>
  <path d="M50 25 C42 25 35 35 32 48 C30 58 35 68 50 75 C65 68 70 58 68 48 C65 35 58 25 50 25 Z" fill="#b8ddcb"/>
  <path d="M50 30 L50 72 M50 45 C45 40 38 42 36 50 C38 58 45 60 50 55 M50 45 C55 40 62 42 64 50 C62 58 55 60 50 55" stroke="#fff" stroke-width="3" stroke-linecap="round" fill="none"/>
</svg>